<svg xmlns="http://www.w3.org/2000/svg" width="1200" height="630" viewBox="0 0 1200 630" role="img" aria-labelledby="title desc">
  <title id="title">Sopa de letras · Coco en Forma</title>
  <desc id="desc">Encuentra las palabras escondidas</desc>
  <defs>
    <linearGradient id="bg-sopa" x1="0" y1="0" x2="1" y2="1"><stop stop-color="#f2c535"/><stop offset="1" stop-color="#db7520"/></linearGradient>
    <filter id="shadow"><feDropShadow dx="0" dy="14" stdDeviation="18" flood-color="#061f2c" flood-opacity=".24"/></filter>
  </defs>
  <rect width="1200" height="630" rx="42" fill="url(#bg-sopa)"/>
  <circle cx="1090" cy="-10" r="260" fill="#fff" opacity=".09"/><circle cx="1035" cy="45" r="175" fill="none" stroke="#fff" stroke-width="3" opacity=".16"/>
  <path d="M0 520C230 440 400 610 650 520s362-12 550-115v225H0Z" fill="#fff" opacity=".1"/>
  <g filter="url(#shadow)"><rect x="76" y="92" width="360" height="360" rx="92" fill="#fff"/></g><svg x="112" y="128" width="288" height="288" viewBox="0 0 120 120" aria-hidden="true"><defs><linearGradient id="cocoIcon-sopa" x1="0" y1="0" x2="1" y2="1"><stop stop-color="#f2c535"/><stop offset="1" stop-color="#db7520"/></linearGradient></defs><rect x="4" y="4" width="112" height="112" rx="30" fill="url(#cocoIcon-sopa)"/><circle cx="35" cy="27" r="20" fill="#fff" opacity=".13"/><rect x="18" y="22" width="84" height="76" rx="13" fill="#fff"/><g fill="#17394b" font-size="15" font-weight="900" text-anchor="middle"><text x="32" y="45">C</text><text x="54" y="45">O</text><text x="76" y="45">C</text><text x="98" y="45">O</text><text x="32" y="68">A</text><text x="54" y="68">R</text><text x="76" y="68">E</text><text x="98" y="68">T</text><text x="32" y="91">M</text><text x="54" y="91">E</text><text x="76" y="91">N</text><text x="98" y="91">T</text></g><path d="M25 48 96 42" stroke="#ffc93c" stroke-width="9" stroke-linecap="round" opacity=".75"/></svg>
  <text x="500" y="145" fill="#dff7ff" font-family="DejaVu Sans,Arial,sans-serif" font-size="28" font-weight="900" letter-spacing="5">COCO EN FORMA</text>
  <text x="500" y="245" fill="#fff" font-family="DejaVu Sans,Arial,sans-serif" font-size="62" font-weight="900">Sopa de letras</text>
  <text x="500" y="330" fill="#eefaff" font-family="DejaVu Sans,Arial,sans-serif" font-size="28" font-weight="700">Encuentra las palabras escondidas</text>
  <rect x="500" y="470" width="350" height="72" rx="36" fill="#fff"/><text x="675" y="516" text-anchor="middle" fill="#db7520" font-family="DejaVu Sans,Arial,sans-serif" font-size="25" font-weight="900">JUEGA Y COMPARTE</text>
</svg>